<svg xmlns="http://www.w3.org/2000/svg" viewBox="0 0 100 100" fill="none">
  <g transform="rotate(45 50 50) translate(30 0)">
    <rect x="16" y="0" width="8" height="54" rx="3" fill="url(#handleGrad)" />
    <rect x="13" y="50" width="14" height="10" rx="2" fill="url(#ferruleGrad)" />
    <path d="M13 60 Q20 62 27 60 L25 85 Q22 92 20 96 Q18 92 15 85 Z" fill="url(#bristleGrad)" />
    <path d="M17 84 Q20 94 20 96 Q20 94 23 84 Q21 86 20 87 Q19 86 17 84Z" fill="#c9a84c" />
    <rect x="18" y="4" width="3" height="44" rx="1.5" fill="white" opacity="0.18" />
  </g>
  <defs>
    <linearGradient id="handleGrad" x1="0" y1="0" x2="1" y2="0">
      <stop offset="0%" stop-color="#5a3800" />
      <stop offset="40%" stop-color="#8b5a1a" />
      <stop offset="100%" stop-color="#3d2600" />
    </linearGradient>
    <linearGradient id="ferruleGrad" x1="0" y1="0" x2="1" y2="0">
      <stop offset="0%" stop-color="#8a6a28" />
      <stop offset="50%" stop-color="#e8c97a" />
      <stop offset="100%" stop-color="#8a6a28" />
    </linearGradient>
    <linearGradient id="bristleGrad" x1="0.5" y1="0" x2="0.5" y2="1">
      <stop offset="0%" stop-color="#9d4edd" />
      <stop offset="50%" stop-color="#7b2ff7" />
      <stop offset="100%" stop-color="#c9a84c" />
    </linearGradient>
  </defs>
</svg>
